<?xml version="1.0" encoding="utf-8"?>
<!-- Generator: Adobe Illustrator 23.0.3, SVG Export Plug-In . SVG Version: 6.00 Build 0)  -->
<svg version="1.1" xmlns="http://www.w3.org/2000/svg" xmlns:xlink="http://www.w3.org/1999/xlink" x="0px" y="0px"
	 viewBox="0 0 566.9 566.9" style="enable-background:new 0 0 566.9 566.9;" xml:space="preserve">
<style type="text/css">
	.st0{display:none;}
	.st1{display:inline;fill:#070F2B;}
	.st2{display:inline;}
	.st3{fill:#070F2B;}
</style>
<g id="Layer_1" class="st0">
	<path class="st1" d="M539.5,140.5c0,2.1-1.7,3.7-3.7,3.7H272.7c0-1,0-1.7,0-2.1c0-0.7,0-2.6,0-5.4h263
		C537.8,136.7,539.5,138.4,539.5,140.5z"/>
	<path class="st1" d="M182,132.4c-4.3,0-7.8,3.2-8.3,7.3c-6.2-3.2-12.3-6.5-18.1-9.9c-6.5-3.8-13.1-7.9-19.6-12.3
		c2.8-2.1,5.1-4.2,7.2-6.3c4.3-4.3,7.5-8.9,9.6-13.7c2.1-4.8,3.3-9.9,3.6-15.2c0.6-10.6-2.5-21.4-8.7-29.5c-0.8-1.1-1.7-2.1-2.5-3
		c-0.7-0.7-1.6-1-2.5-0.8c-1,0.2-1.8,1-2.1,2c-0.3,0.9-0.1,2,0.6,2.7c6.2,6.7,9.7,16.2,9.7,25.9c0,4.8-0.8,9.5-2.5,13.9
		s-4.4,8.7-8.1,12.6c-2.5,2.7-5.6,5.4-9.3,8.2c-3.8-2.6-7.2-5-10.3-7.3c5.4-4.2,10.7-9,14.3-15.1c2.1-3.5,3.4-7.3,4-11.1v-0.1l0,0
		c0.1-1,0.2-2,0.2-3.1v-0.1v-0.3c0-0.8,0-1.6-0.1-2.4c-0.3-3.1-1.2-6-2.6-8.5c0-0.1-0.1-0.2-0.2-0.3c-4.1-7.4-11.9-12-20.3-12
		s-16.2,4.6-20.3,12c-0.1,0.1-0.1,0.2-0.2,0.3c-1.4,2.5-2.3,5.4-2.6,8.5c-0.1,0.8-0.1,1.6-0.1,2.3v0.2c0,0.1,0,0.3,0,0.3
		c0,1.1,0.1,2.1,0.2,3c0,0,0,0.1,0,0.2V81c0.6,3.8,1.9,7.6,4,11c3.6,6.1,8.9,10.9,14.3,15.1c-3.5,2.5-6.9,5-10.3,7.3
		c-2.5-1.8-4.6-3.6-6.5-5.3c-4.2-3.9-7.4-8.1-9.5-12.3c-2-4.1-3.3-8.7-3.7-13.5c-0.8-9.6,1.9-19.4,7.4-26.8c0.6-0.9,1.4-1.7,2.2-2.6
		c1.1-1.2,1-2.9-0.2-4c-1.1-1-2.8-1-3.8,0.2c-7,7.6-11,17.9-11.2,28.7c-0.1,5.3,0.6,10.5,2.3,15.4c1.7,5,4.5,9.8,8.2,14.2
		c2.7,3.2,6,6.3,10,9.4c-2.1,1.4-4,2.6-5.8,3.8c-8.1,5.2-16.5,10.1-24.9,14.7c-2.1,1.2-4.4,2.3-6.9,3.6c-0.5-4.1-4.1-7.3-8.3-7.3
		c-4.6,0-8.4,3.8-8.4,8.4c0,5.7,5.7,10.2,11.7,7.7c0.1,0,0.2-0.1,0.2-0.1c8.6-4.2,17.2-8.8,25.5-13.6c7.2-4.2,14.5-8.8,21.7-13.6
		c3.2,2.2,6.5,4.2,9.7,6.1c-9,5.5-17.9,11.8-24,20.8c-5.3,7.9-9.4,20.3-4.9,31.5c0.3,0.8,0.7,1.6,1.2,2.5c1.3,3.2,4.3,5.3,7.8,5.3
		c4.6,0,8.4-3.8,8.4-8.4c0-4.6-3.8-8.4-8.4-8.4c-1.9,0-3.6,0.6-5.1,1.7c-0.8-6.2,0.9-13.3,4.6-19.6c5.7-9.5,15.2-15.8,24.6-21.6
		l1.2-0.7c9.5,5.7,17.8,11.2,23.7,19.2c4.2,5.7,7.9,14.4,6.6,23c-1.5-1.2-3.3-1.8-5.2-1.8c-4.6,0-8.4,3.8-8.4,8.4
		c0,4.6,3.8,8.4,8.4,8.4c3,0,5.8-1.6,7.2-4.2l0.1-0.1c5.3-8.9,4.9-20.8-1-31.8c-5.7-10.6-15.8-17.9-25-23.6
		c-0.4-0.2-0.7-0.5-1.1-0.7c3.1-1.9,6.4-3.9,9.6-6.1c2.8,1.9,5.3,3.5,7.6,5c8.1,5.2,16.6,10.2,25.1,14.8c4.7,2.6,9.6,5.1,14.5,7.5
		c0.2,0.1,0.3,0.1,0.4,0.2c1,0.4,2.1,0.7,3.2,0.7c4.6,0,8.4-3.8,8.4-8.4S186.6,132.4,182,132.4z M182,137.9c1.5,0,2.8,1.3,2.8,2.8
		s-1.3,2.8-2.8,2.8s-2.8-1.3-2.8-2.8C179.1,139.2,180.4,137.9,182,137.9z M133.8,77.3c0,0.8-0.1,1.7-0.2,2.6
		c-0.4,3.1-1.6,6.3-3.3,9.1c-3.4,5.7-8.8,10.4-14.2,14.5c-5-3.9-10.6-8.5-14.1-14.5l0,0c-1.7-2.8-2.8-5.9-3.2-9v-0.2
		c-0.1-0.9-0.2-1.7-0.2-2.6V77c0-0.1,0-0.2,0-0.3v-0.4c0-0.4,0-0.7,0.1-1.1c1-9,8.5-15.8,17.6-15.8s16.6,6.8,17.6,15.8
		c0,0.4,0,0.7,0.1,1.1v0.4c0,0.1,0,0.2,0,0.4 M116.1,110.5c3.2,2.4,6.5,4.8,10.1,7.2c-3.3,2.2-6.7,4.2-10,6.2
		c-3.3-2-6.8-4.1-10.1-6.2C109.1,115.6,112.4,113.2,116.1,110.5z M51.5,143.3c-0.3,0.1-0.7,0.2-1.1,0.2c-1.5,0-2.8-1.3-2.8-2.8
		c0-1.6,1.3-2.8,2.8-2.8s2.8,1.3,2.8,2.8C53.2,141.8,52.6,142.8,51.5,143.3z M90.9,181.8c-0.8,0-1.6-0.4-2.2-1
		c0-0.1-0.1-0.2-0.2-0.3c-0.1-0.2-0.2-0.3-0.3-0.5l-0.1-0.2c-0.1-0.3-0.1-0.6-0.1-0.8c0-1.5,1.3-2.8,2.8-2.8s2.8,1.3,2.8,2.8
		C93.7,180.5,92.4,181.8,90.9,181.8z M141.3,176.4c1.5,0,2.8,1.3,2.8,2.8c0,0.4-0.1,0.7-0.2,1l-0.1,0.1c0,0.1-0.1,0.1-0.1,0.2
		c-0.5,0.9-1.4,1.4-2.4,1.4c-1.5,0-2.8-1.3-2.8-2.8C138.4,177.7,139.7,176.4,141.3,176.4z"/>
	<g class="st2">
		<path class="st3" d="M270.8,63c-0.6-2.4-1.4-4.7-2.5-6.7c-0.6-1.1-1.3-2.1-2.1-2.9c-2.1,1.2-4.5,1.9-7,1.9c-2.7,0-5.3-0.8-7.5-2.2
			c-0.7,0.7-1.3,1.4-1.9,2.3c-1.2,1.8-2.3,3.8-3.2,6.1s-1.7,4.8-2.2,7.3c-0.3,1.5-0.6,25.3-0.9,42.6c-0.2,12.3-0.3,22-0.4,23
			c-0.3,2.6-0.4,5-0.4,7.3c0,0.7,0,1.5,0,2.4c0,0.8,0,1.7,0,2.6c0,1.2,0,2.4,0.1,3.6c0,0.4,0.1,2,0.1,4.3c0.6,0.3,1.3,0.6,1.9,1
			c2.6,1.7,4.5,4.1,5.6,6.8c0-4.8,0-12.1-0.1-12.5c0-0.6-0.1-1.2-0.1-1.8c0-0.5,0.1-1.1,0.2-1.8c0.2-1.4,0.9-1.6,1.3-1.6
			c1.7-0.2,3.6-0.3,5.5-0.3h1.1c1.8,0,3.6,0,5.6,0c0.2,0,0.4,0.1,0.5,0.2c0.1,0.1,0.1,0.2,0.1,0.3s0,0.1,0,0.2c0,0.1,0,0.3-0.1,0.4
			c-0.2,0.9-0.3,1.8-0.3,2.5c0,0.9,0,1.9,0,2.8c0,1,0,2-0.1,2.9s-0.1,29-0.1,38.1c0.1-0.3,0.3-0.6,0.5-0.8c1.6-2.6,4-4.5,6.8-5.5
			c0.1-6.3,0.1-14.8,0.2-22.7c0.1-7,0.1-13.4,0.1-17.2V145c0-0.2,0-0.4,0-0.6c0-1,0-1.7,0-2.2c0-0.7,0-2.5,0-5.3c0-0.2,0-0.4,0-0.6
			c0-0.2,0-0.4,0-0.6c0.1-17,0.2-60.2,0.2-65.3C271.7,67.9,271.4,65.4,270.8,63z M263.5,136.1c-0.5,0.4-1.2,0.6-1.9,0.6h-9.4
			c-0.4,0-0.8-0.2-1.2-0.5c-0.4-0.4-0.6-0.7-0.6-1.1c0-0.5,0.1-10.7,0.1-21.5c0.1-22.3,0.2-39.3,0.3-40.1c0.2-1.4,0.5-2.8,0.8-4.2
			c0.3-1.4,0.7-2.8,1.1-4.2c0.5-1.4,1-2.7,1.6-3.8s1.3-2.1,2-2.8c1.6-1.5,3.8-1.6,5.2,0.2c0.6,0.8,1.1,1.9,1.5,3.1
			c0.4,1.2,0.7,2.6,1,4.1c0.2,1.5,0.4,3,0.5,4.5s0.2,2.9,0.2,4.3c0,1.3,0,58,0,58.6c0,0.8-0.3,1.5-0.7,2.1
			C264,135.7,263.8,135.9,263.5,136.1z"/>
		<g>
			<path class="st3" d="M283.2,187.7c-2.1-1.4-4.5-2.1-7-2.1c-0.9,0-1.9,0.1-2.8,0.3c-0.4,0.1-0.8,0.2-1.2,0.3
				c-0.2,0.1-0.4,0.1-0.6,0.2c-0.2,0.1-0.4,0.1-0.6,0.2c-2.3,1-4.3,2.7-5.7,4.9c-0.6,1-1.1,2-1.5,3.1c-0.1,0.3-0.2,0.7-0.3,1.1l0,0
				c-0.1,0.3-0.1,0.6-0.2,0.9l0,0c-0.2,1.5-0.1,3,0.2,4.5c0.7,3.4,2.7,6.3,5.6,8.1c2.9,1.9,6.4,2.5,9.8,1.8s6.3-2.7,8.1-5.6
				C290.9,199.6,289.2,191.6,283.2,187.7z M281.2,201.8c-0.9,1.3-2.2,2.3-3.8,2.6c-0.4,0.1-0.8,0.1-1.3,0.1c-1.1,0-2.3-0.3-3.2-0.9
				c-1.4-0.9-2.3-2.2-2.6-3.8c-0.1-0.5-0.1-1-0.1-1.5c0-0.3,0-0.6,0.1-0.9c0.1-0.7,0.4-1.5,0.8-2.1c0.1-0.2,0.2-0.3,0.4-0.5
				c0.2-0.2,0.4-0.5,0.7-0.7c0.8-0.7,1.7-1.2,2.7-1.4c1.6-0.3,3.2,0,4.5,0.8C282.2,195.3,283,199.1,281.2,201.8z"/>
		</g>
		<g>
			<path class="st3" d="M266.3,30.1c-2.1-1.4-4.5-2.1-7-2.1c-0.9,0-1.9,0.1-2.8,0.3c-3.4,0.7-6.3,2.7-8.1,5.6
				c-1.9,2.9-2.5,6.4-1.8,9.7c0.7,3.1,2.4,5.8,5,7.6c0.1,0.1,0.3,0.3,0.5,0.4c0,0,0.1,0.1,0.2,0.1c0.1,0.1,0.2,0.1,0.4,0.2
				c2,1.2,4.3,1.9,6.6,1.9c2.2,0,4.3-0.5,6.1-1.5c0.2-0.1,0.4-0.2,0.5-0.3c0.2-0.1,0.4-0.2,0.5-0.3c1.5-0.9,2.7-2.2,3.7-3.7
				C274,42,272.3,34,266.3,30.1z M254.2,37.8c0.9-1.4,2.2-2.3,3.8-2.6s3.2,0,4.5,0.8c2.8,1.8,3.6,5.5,1.8,8.3
				c-0.9,1.4-2.2,2.3-3.8,2.6c-0.4,0.1-0.9,0.1-1.3,0.1c-1.1,0-2.2-0.3-3.2-1c-1.3-0.9-2.3-2.2-2.6-3.8
				C253.1,40.7,253.4,39.1,254.2,37.8z"/>
		</g>
		<g>
			<path class="st3" d="M244.2,156.5c-0.4-0.2-0.8-0.5-1.2-0.7c-0.2-0.1-0.4-0.2-0.6-0.3c-0.2-0.1-0.4-0.2-0.6-0.2
				c-1.5-0.6-3-0.8-4.6-0.8c-4.3,0-8.4,2.1-10.9,5.9c-1.9,2.9-2.5,6.4-1.8,9.7c0.7,3.4,2.7,6.3,5.6,8.1c2.9,1.9,6.4,2.5,9.7,1.8
				c3.4-0.7,6.3-2.7,8.2-5.6c0.7-1.1,1.2-2.3,1.6-3.5c0.1-0.4,0.2-0.8,0.2-1.2l0,0c0.1-0.5,0.1-1,0.2-1.6
				C250.3,163.7,248.2,159.2,244.2,156.5z M242.2,170.7c-0.9,1.3-2.2,2.3-3.8,2.6c-0.4,0.1-0.9,0.1-1.3,0.1c-1.1,0-2.3-0.3-3.2-0.9
				c-1.4-0.9-2.3-2.2-2.6-3.8s0-3.2,0.8-4.5c1.1-1.7,3-2.7,5.1-2.7c1.1,0,2.3,0.3,3.2,0.9c0.6,0.4,1.1,0.9,1.6,1.5l0,0
				c0.3,0.3,0.5,0.7,0.7,1.1c0.5,1.1,0.7,2.4,0.4,3.7c0,0.3-0.1,0.6-0.3,0.9C242.6,169.9,242.4,170.3,242.2,170.7z"/>
		</g>
	</g>
	<g class="st2">
		<g>
			<path class="st3" d="M314.4,81.6c-1.1-1.1-2.7-1-3.8,0c-0.5,0.5-0.8,1.1-0.8,1.9v24c0,0.2-0.2,0.5-0.4,0.6
				c-0.2,0.1-0.5,0-0.7-0.2l-19.5-26c-0.3-0.4-0.8-0.7-1.4-0.9s-1.1-0.2-1.6,0s-0.9,0.5-1.3,1c-0.3,0.5-0.5,1-0.5,1.6v33.8
				c0,0.7,0.2,1.3,0.8,1.8c1.1,1.1,2.7,1,3.7,0c0.5-0.5,0.8-1.1,0.8-1.9v-24c0-0.2,0.2-0.5,0.4-0.6c0,0,0.1,0,0.2,0
				c0.2,0,0.4,0.1,0.5,0.2l19.6,25.9c0.3,0.5,0.8,0.8,1.3,1s1.1,0.1,1.7,0c0.5-0.2,0.9-0.5,1.3-1c0.3-0.5,0.5-1,0.5-1.5V83.5
				C315.2,82.7,315,82.1,314.4,81.6z"/>
		</g>
		<g>
			<path class="st3" d="M357.5,116.1L357.5,116.1l-16.4-33.8c-0.2-0.5-0.5-0.8-0.9-1.1c-0.4-0.2-0.9-0.4-1.4-0.4s-1,0.1-1.4,0.4
				s-0.8,0.6-1,1.1L319.9,116c-0.3,0.7-0.4,1.3-0.1,2c0.2,0.7,0.7,1.2,1.4,1.5c0.7,0.3,1.3,0.4,2,0.1c0.7-0.2,1.2-0.7,1.6-1.4
				l4.3-8.9c0.1-0.2,0.3-0.3,0.6-0.3H348c0.2,0,0.4,0.1,0.5,0.3l4.3,8.9c0.3,0.6,0.8,1.1,1.6,1.3c0.7,0.2,1.3,0.2,2-0.1
				c0.7-0.3,1.2-0.8,1.4-1.5C357.9,117.4,357.8,116.7,357.5,116.1z M345.2,103.5c-0.1,0.2-0.3,0.3-0.5,0.3h-11.9
				c-0.2,0-0.4-0.1-0.5-0.3c-0.1-0.2-0.1-0.4,0-0.6l6-12.3c0.1-0.2,0.3-0.3,0.6-0.3c0.2,0,0.4,0.1,0.5,0.3l5.9,12.3
				C345.3,103.1,345.3,103.3,345.2,103.5z"/>
		</g>
		<g>
			<path class="st3" d="M387.3,115.1c-0.5-0.5-1.1-0.8-1.9-0.8H368c-0.3,0-0.6-0.3-0.6-0.6V83.5c0-0.7-0.2-1.4-0.8-1.9
				c-0.5-0.5-1-0.7-1.7-0.7c-0.8,0-1.4,0.2-2,0.8c-0.5,0.5-0.8,1.1-0.8,1.9v33.5c0,0.7,0.2,1.4,0.8,1.9c0.5,0.5,1.1,0.8,1.9,0.8
				h20.6c0.7,0,1.3-0.2,1.9-0.8c0.5-0.5,0.8-1.1,0.8-1.9C388.1,116.2,387.8,115.6,387.3,115.1z"/>
		</g>
		<path class="st3" d="M414.9,81.3L414.9,81.3c-0.6-0.4-1.2-0.6-2-0.5c-0.7,0.1-1.3,0.5-1.7,1.1l-11.9,16.9
			c-0.1,0.2-0.3,0.3-0.5,0.3s-0.4-0.1-0.5-0.3l-11.9-16.9c-0.4-0.6-1-1-1.7-1.1c-0.1,0-0.3,0-0.5,0c-0.5,0-1,0.1-1.5,0.5
			c-0.6,0.4-1,1-1.1,1.7s0,1.4,0.5,2l14,19.8c0.1,0.1,0.1,0.2,0.1,0.4l-0.2,12c0,0.7,0.2,1.4,0.8,1.9c1,1,2.6,1.1,3.7,0
			c0.5-0.5,0.8-1.1,0.8-1.8l0.1-12.1c0-0.1,0-0.2,0.1-0.3l14-19.8c0.4-0.6,0.6-1.3,0.5-2C415.9,82.3,415.5,81.7,414.9,81.3z"/>
		<path class="st3" d="M449.2,105.4c-0.4-1.1-1-2.2-1.8-3.1s-1.7-1.7-2.8-2.3c-1-0.6-2.2-1-3.5-1.2l-12.4-2.1
			c-1.2-0.2-2.2-0.8-3-1.7c-0.8-0.9-1.2-2-1.2-3.3v-0.5c0-1.4,0.5-2.6,1.5-3.5c1-1,2.2-1.5,3.6-1.5h15.5c0.7,0,1.4-0.2,1.9-0.8
			c0.5-0.5,0.8-1.1,0.8-1.8c0-0.8-0.3-1.4-0.8-1.9s-1.2-0.8-1.9-0.8h-15.5c-1.4,0-2.8,0.3-4,0.8c-1.3,0.5-2.3,1.3-3.3,2.2
			c-0.9,0.9-1.7,2-2.2,3.3s-0.8,2.6-0.8,4v0.5c0,1.2,0.2,2.4,0.6,3.6c0.4,1.1,1,2.2,1.8,3.1s1.7,1.6,2.7,2.3c1.1,0.6,2.2,1,3.5,1.2
			l12.4,2.1c1.2,0.2,2.2,0.8,3,1.7c0.8,0.9,1.2,2,1.2,3.3v0.3c0,1.4-0.5,2.6-1.5,3.6s-2.2,1.5-3.5,1.5h-16.4c-0.7,0-1.3,0.2-1.9,0.8
			c-0.5,0.5-0.8,1.1-0.8,1.9c0,0.7,0.3,1.3,0.8,1.8s1.1,0.8,1.9,0.8h16.4c1.4,0,2.8-0.3,4-0.8s2.3-1.3,3.3-2.2
			c0.9-0.9,1.7-2,2.2-3.3c0.5-1.2,0.8-2.6,0.8-4V109C449.8,107.7,449.6,106.5,449.2,105.4z"/>
		<path class="st3" d="M484.6,81.8c-0.5-0.5-1.1-0.8-1.9-0.8h-27.9c-0.7,0-1.3,0.2-1.9,0.8c-0.5,0.5-0.8,1.2-0.8,1.9
			c0,0.7,0.2,1.3,0.8,1.9c0.5,0.5,1.1,0.8,1.9,0.8h10.7c0.3,0,0.6,0.3,0.6,0.6v30.3c0,0.7,0.3,1.3,0.8,1.9c1,1,2.6,1.1,3.7,0
			c0.5-0.5,0.8-1.1,0.8-1.8V86.9c0-0.3,0.3-0.6,0.6-0.6h10.7c0.7,0,1.4-0.3,1.9-0.8s0.8-1.1,0.8-1.9
			C485.3,82.9,485.1,82.3,484.6,81.8z"/>
		<path class="st3" d="M523.8,92.7c-1-2.3-2.4-4.5-4.2-6.2c-1.8-1.8-3.9-3.2-6.2-4.2s-4.9-1.5-7.6-1.5s-5.2,0.5-7.6,1.5
			s-4.5,2.4-6.2,4.2c-1.8,1.8-3.2,3.9-4.2,6.2c-1,2.4-1.5,4.9-1.5,7.6s0.5,5.2,1.5,7.6c1,2.3,2.4,4.5,4.2,6.2
			c1.8,1.8,3.8,3.2,6.2,4.2c4.7,2,10.5,2,15.2,0c2.4-1,4.5-2.4,6.2-4.2c1.8-1.8,3.2-3.9,4.2-6.2c1-2.4,1.5-4.9,1.5-7.6
			C525.3,97.7,524.8,95.1,523.8,92.7z M518.9,105.9c-0.7,1.7-1.8,3.3-3,4.5c-1.3,1.3-2.8,2.3-4.5,3s-3.6,1.1-5.6,1.1
			c-1.9,0-3.8-0.4-5.5-1.1c-1.7-0.8-3.3-1.8-4.5-3c-1.3-1.3-2.3-2.8-3-4.5c-0.7-1.8-1.1-3.6-1.1-5.6s0.4-3.8,1.1-5.6
			c0.7-1.7,1.8-3.2,3-4.5c1.3-1.3,2.8-2.3,4.5-3c3.5-1.5,7.7-1.5,11.1,0c1.7,0.8,3.2,1.8,4.5,3c1.3,1.3,2.3,2.8,3,4.5
			c0.8,1.7,1.1,3.6,1.1,5.6C520.1,102.3,519.7,104.1,518.9,105.9z"/>
	</g>
</g>
<g id="Layer_1_copy" class="st0">
	<path class="st1" d="M-140.7,111.1c-4.3,0-7.8,3.2-8.3,7.3c-6.2-3.2-12.3-6.5-18.1-9.9c-6.5-3.8-13.1-7.9-19.6-12.3
		c2.8-2.1,5.1-4.2,7.2-6.3c4.3-4.3,7.5-8.9,9.6-13.7c2.1-4.8,3.3-9.9,3.6-15.2c0.6-10.6-2.5-21.4-8.7-29.5c-0.8-1.1-1.7-2.1-2.5-3
		c-0.7-0.7-1.6-1-2.5-0.8c-1,0.2-1.8,1-2.1,2c-0.3,0.9-0.1,2,0.6,2.7c6.2,6.7,9.7,16.2,9.7,25.9c0,4.8-0.8,9.5-2.5,13.9
		s-4.4,8.7-8.1,12.6c-2.5,2.7-5.6,5.4-9.3,8.2c-3.8-2.6-7.2-5-10.3-7.3c5.4-4.2,10.7-9,14.3-15.1c2.1-3.5,3.4-7.3,4-11.1v-0.1l0,0
		c0.1-1,0.2-2,0.2-3.1v-0.1v-0.3c0-0.8,0-1.6-0.1-2.4c-0.3-3.1-1.2-6-2.6-8.5c0-0.1-0.1-0.2-0.2-0.3c-4.1-7.4-11.9-12-20.3-12
		s-16.2,4.6-20.3,12c-0.1,0.1-0.1,0.2-0.2,0.3c-1.4,2.5-2.3,5.4-2.6,8.5c-0.1,0.8-0.1,1.6-0.1,2.3V56c0,0.1,0,0.3,0,0.3
		c0,1.1,0.1,2.1,0.2,3c0,0,0,0.1,0,0.2v0.2c0.6,3.8,1.9,7.6,4,11c3.6,6.1,8.9,10.9,14.3,15.1c-3.5,2.5-6.9,5-10.3,7.3
		c-2.5-1.8-4.6-3.6-6.5-5.3c-4.2-3.9-7.4-8.1-9.5-12.3c-2-4.1-3.3-8.7-3.7-13.5c-0.8-9.6,1.9-19.4,7.4-26.8c0.6-0.9,1.4-1.7,2.2-2.6
		c1.1-1.2,1-2.9-0.2-4c-1.1-1-2.8-1-3.8,0.2c-7,7.6-11,17.9-11.2,28.7c-0.1,5.3,0.6,10.5,2.3,15.4c1.7,5,4.5,9.8,8.2,14.2
		c2.7,3.2,6,6.3,10,9.4c-2.1,1.4-4,2.6-5.8,3.8c-8.1,5.2-16.5,10.1-24.9,14.7c-2.1,1.2-4.4,2.3-6.9,3.6c-0.5-4.1-4.1-7.3-8.3-7.3
		c-4.6,0-8.4,3.8-8.4,8.4c0,5.7,5.7,10.2,11.7,7.7c0.1,0,0.2-0.1,0.2-0.1c8.6-4.2,17.2-8.8,25.5-13.6c7.2-4.2,14.5-8.8,21.7-13.6
		c3.2,2.2,6.5,4.2,9.7,6.1c-9,5.5-17.9,11.8-24,20.8c-5.3,7.9-9.4,20.3-4.9,31.5c0.3,0.8,0.7,1.6,1.2,2.5c1.3,3.2,4.3,5.3,7.8,5.3
		c4.6,0,8.4-3.8,8.4-8.4c0-4.6-3.8-8.4-8.4-8.4c-1.9,0-3.6,0.6-5.1,1.7c-0.8-6.2,0.9-13.3,4.6-19.6c5.7-9.5,15.2-15.8,24.6-21.6
		l1.2-0.7c9.5,5.7,17.8,11.2,23.7,19.2c4.2,5.7,7.9,14.4,6.6,23c-1.5-1.2-3.3-1.8-5.2-1.8c-4.6,0-8.4,3.8-8.4,8.4
		c0,4.6,3.8,8.4,8.4,8.4c3,0,5.8-1.6,7.2-4.2l0.1-0.1c5.3-8.9,4.9-20.8-1-31.8c-5.7-10.6-15.8-17.9-25-23.6
		c-0.4-0.2-0.7-0.5-1.1-0.7c3.1-1.9,6.4-3.9,9.6-6.1c2.8,1.9,5.3,3.5,7.6,5c8.1,5.2,16.6,10.2,25.1,14.8c4.7,2.6,9.6,5.1,14.5,7.5
		c0.2,0.1,0.3,0.1,0.4,0.2c1,0.4,2.1,0.7,3.2,0.7c4.6,0,8.4-3.8,8.4-8.4S-136.1,111.1-140.7,111.1z M-140.7,116.6
		c1.5,0,2.8,1.3,2.8,2.8s-1.3,2.8-2.8,2.8s-2.8-1.3-2.8-2.8C-143.6,117.9-142.3,116.6-140.7,116.6z M-188.9,56
		c0,0.8-0.1,1.7-0.2,2.6c-0.4,3.1-1.6,6.3-3.3,9.1c-3.4,5.7-8.8,10.4-14.2,14.5c-5-3.9-10.6-8.5-14.1-14.5l0,0
		c-1.7-2.8-2.8-5.9-3.2-9v-0.2c-0.1-0.9-0.2-1.7-0.2-2.6v-0.2c0-0.1,0-0.2,0-0.3V55c0-0.4,0-0.7,0.1-1.1c1-9,8.5-15.8,17.6-15.8
		s16.6,6.8,17.6,15.8c0,0.4,0,0.7,0.1,1.1v0.4c0,0.1,0,0.2,0,0.4 M-206.6,89.2c3.2,2.4,6.5,4.8,10.1,7.2c-3.3,2.2-6.7,4.2-10,6.2
		c-3.3-2-6.8-4.1-10.1-6.2C-213.6,94.3-210.3,91.9-206.6,89.2z M-271.2,122c-0.3,0.1-0.7,0.2-1.1,0.2c-1.5,0-2.8-1.3-2.8-2.8
		c0-1.6,1.3-2.8,2.8-2.8s2.8,1.3,2.8,2.8C-269.5,120.5-270.1,121.5-271.2,122z M-231.8,160.5c-0.8,0-1.6-0.4-2.2-1
		c0-0.1-0.1-0.2-0.2-0.3c-0.1-0.2-0.2-0.3-0.3-0.5l-0.1-0.2c-0.1-0.3-0.1-0.6-0.1-0.8c0-1.5,1.3-2.8,2.8-2.8s2.8,1.3,2.8,2.8
		C-229,159.2-230.3,160.5-231.8,160.5z M-181.4,155.1c1.5,0,2.8,1.3,2.8,2.8c0,0.4-0.1,0.7-0.2,1l-0.1,0.1c0,0.1-0.1,0.1-0.1,0.2
		c-0.5,0.9-1.4,1.4-2.4,1.4c-1.5,0-2.8-1.3-2.8-2.8C-184.3,156.4-183,155.1-181.4,155.1z"/>
</g>
<g id="Layer_3" class="st0">
	<path class="st1" d="M432.1,140.5c0,2.1-1.7,3.7-3.7,3.7H165.3c0-1,0-1.7,0-2.1c0-0.7,0-2.6,0-5.4h263
		C430.4,136.7,432.1,138.4,432.1,140.5z"/>
	<g class="st2">
		<path class="st3" d="M165.4,63c-0.6-2.4-1.4-4.7-2.5-6.7c-0.6-1.1-1.3-2.1-2.1-2.9c-2.1,1.2-4.5,1.9-7,1.9c-2.7,0-5.3-0.8-7.5-2.2
			c-0.7,0.7-1.3,1.4-1.9,2.3c-1.2,1.8-2.3,3.8-3.2,6.1s-1.7,4.8-2.2,7.3c-0.3,1.5-0.6,25.3-0.9,42.6c-0.2,12.3-0.3,22-0.4,23
			c-0.3,2.6-0.4,5-0.4,7.3c0,0.7,0,1.5,0,2.4c0,0.8,0,1.7,0,2.6c0,1.2,0,2.4,0.1,3.6c0,0.4,0.1,6.4,0.1,8.7c0.6,0.3,1.3,0.6,1.9,1
			c2.6,1.7,4.5,4.1,5.6,6.8c0-4.8,0-16.5-0.1-16.9c0-0.6-0.1-1.2-0.1-1.8c0-0.5,0.1-1.1,0.2-1.8c0.2-1.4,0.9-1.6,1.3-1.6
			c1.7-0.2,3.6-0.3,5.5-0.3h1.1c1.8,0,3.6,0,5.6,0c0.2,0,0.4,0.1,0.5,0.2c0.1,0.1,0.1,0.2,0.1,0.3s0,0.1,0,0.2c0,0.1,0,0.3-0.1,0.4
			c-0.2,0.9-0.3,1.8-0.3,2.5c0,0.9,0,1.9,0,2.8c0,1,0,2-0.1,2.9s-0.1,35.7-0.1,44.8c0.1-0.3,0.3-0.6,0.5-0.8c1.6-2.6,4-4.5,6.8-5.5
			c0.1-6.3,0.1-21.5,0.2-29.4c0.1-7,0.1-13.4,0.1-17.2V145c0-0.2,0-0.4,0-0.6c0-1,0-1.7,0-2.2c0-0.7,0-2.5,0-5.3c0-0.2,0-0.4,0-0.6
			c0-0.2,0-0.4,0-0.6c0.1-17,0.2-60.2,0.2-65.3C166.3,67.9,166,65.4,165.4,63z M158.1,136.1c-0.5,0.4-1.2,0.6-1.9,0.6h-9.4
			c-0.4,0-0.8-0.2-1.2-0.5c-0.4-0.4-0.6-0.7-0.6-1.1c0-0.5,0.1-10.7,0.1-21.5c0.1-22.3,0.2-39.3,0.3-40.1c0.2-1.4,0.5-2.8,0.8-4.2
			c0.3-1.4,0.7-2.8,1.1-4.2c0.5-1.4,1-2.7,1.6-3.8s1.3-2.1,2-2.8c1.6-1.5,3.8-1.6,5.2,0.2c0.6,0.8,1.1,1.9,1.5,3.1
			c0.4,1.2,0.7,2.6,1,4.1c0.2,1.5,0.4,3,0.5,4.5s0.2,2.9,0.2,4.3c0,1.3,0,58,0,58.6c0,0.8-0.3,1.5-0.7,2.1
			C158.6,135.7,158.4,135.9,158.1,136.1z"/>
		<g>
			<g>
				<path class="st3" d="M181.1,196.3c-0.6-3-2.4-5.6-5-7.3c0,0,0,0,0,0c-1.8-1.2-4-1.9-6.2-1.9c-0.8,0-1.7,0.1-2.5,0.3l-1,0.3
					c-0.2,0.1-0.3,0.1-0.4,0.1c-0.2,0.1-0.5,0.2-0.6,0.2c-2.1,0.9-3.9,2.4-5.1,4.4c-0.6,1-1,1.9-1.3,2.8c-0.1,0.2-0.2,0.6-0.3,1
					c0,0,0,0.1,0,0.1c0,0.1,0,0.1,0,0.2c0,0.2-0.1,0.3-0.1,0.5c-0.2,1.2-0.1,2.5,0.2,3.9c0.6,3,2.4,5.5,4.9,7.1
					c2.6,1.7,5.6,2.2,8.7,1.6c3-0.6,5.5-2.4,7.1-4.9C181.2,202.1,181.7,199.2,181.1,196.3z M176.2,202.6
					C176.2,202.6,176.2,202.7,176.2,202.6c-1.2,1.8-2.9,2.9-4.8,3.2c-0.5,0.1-1,0.1-1.6,0.1c-1.5,0-2.9-0.4-4-1.2
					c-1.7-1.1-2.9-2.8-3.2-4.8c-0.1-0.6-0.1-1.2-0.1-1.8c0-0.3,0-0.8,0.1-1.2c0.1-0.9,0.5-1.8,1-2.5c0.2-0.4,0.4-0.6,0.6-0.8
					c0,0,0.1-0.1,0.1-0.1c0.2-0.2,0.4-0.5,0.7-0.7c1-0.9,2.1-1.5,3.3-1.7c2-0.4,3.9,0,5.6,1c1.7,1.1,2.9,2.8,3.3,4.8
					C177.7,199,177.3,201,176.2,202.6z"/>
			</g>
		</g>
		<g>
			<g>
				<path class="st3" d="M164.6,42.7c-0.6-3-2.4-5.5-5-7.2c0,0,0,0,0,0c-1.8-1.2-3.9-1.8-6.2-1.8c-0.8,0-1.7,0.1-2.5,0.3
					c-3,0.6-5.6,2.4-7.2,4.9c-1.7,2.6-2.2,5.6-1.6,8.6c0.6,2.8,2.1,5.1,4.4,6.7c0.1,0.1,0.1,0.1,0.2,0.2c0,0,0.1,0.1,0.2,0.1
					c0,0,0,0,0,0c0.1,0,0.2,0.1,0.3,0.1c0.1,0,0.2,0.1,0.2,0.1c0,0,0.1,0,0.1,0c1.8,1.1,3.9,1.7,5.8,1.7c2,0,3.8-0.5,5.4-1.3
					c0.1-0.1,0.2-0.1,0.3-0.1c0.1-0.1,0.2-0.1,0.3-0.2c0.1,0,0.1-0.1,0.2-0.1c0.1-0.1,0.1-0.1,0.2-0.2c1.2-0.7,2.2-1.8,3.2-3.2
					C164.7,48.8,165.2,45.7,164.6,42.7z M159.7,49.3c-1.1,1.8-2.8,2.9-4.8,3.3c-0.5,0.1-1.1,0.1-1.6,0.1c-1.5,0-2.9-0.4-4.1-1.3
					c-1.7-1.2-2.9-2.9-3.2-4.8c-0.4-1.8,0-3.8,1-5.5c0,0,0,0,0,0c1.1-1.8,2.8-2.9,4.8-3.3c2-0.4,3.9,0,5.6,1
					C161,41.2,162,45.8,159.7,49.3z"/>
			</g>
		</g>
		<g>
			<g>
				<path class="st3" d="M139.9,157.8c-0.2-0.1-0.4-0.2-0.6-0.4c-0.1-0.1-0.3-0.2-0.5-0.3l-0.6-0.3c0,0-0.1,0-0.1-0.1
					c-0.1,0-0.3,0-0.4-0.1c-1.2-0.5-2.5-0.7-4-0.7c-3.9,0-7.5,2-9.7,5.2c-1.6,2.5-2.2,5.6-1.6,8.6c0.6,3,2.4,5.6,4.9,7.1
					c2.6,1.7,5.6,2.2,8.6,1.6c3-0.6,5.6-2.4,7.3-5c0.5-0.8,1-1.8,1.4-3.1c0.1-0.3,0.1-0.6,0.1-0.8c0-0.1,0-0.2,0-0.3
					c0-0.2,0.1-0.4,0.1-0.6c0-0.3,0.1-0.5,0.1-0.8C145.2,164,143.3,160.1,139.9,157.8z M141.1,168.9c0,0.5-0.2,1-0.5,1.5
					c-0.1,0.2-0.3,0.6-0.5,0.9c0,0.1-0.1,0.1-0.1,0.2c-1.2,1.7-2.9,2.9-4.8,3.2c-0.5,0.1-1.1,0.1-1.6,0.1c-1.5,0-2.9-0.4-4-1.2
					c-1.7-1.1-2.9-2.8-3.2-4.8c-0.4-1.9,0-3.9,1-5.6c1.4-2.1,3.8-3.4,6.4-3.4c1.5,0,2.9,0.4,4,1.2c0.7,0.4,1.2,1,1.9,1.7
					c0.4,0.5,0.7,1,0.9,1.4C141.2,165.8,141.4,167.4,141.1,168.9z"/>
			</g>
		</g>
	</g>
	<g class="st2">
		<g>
			<path class="st3" d="M205.1,91.1c-1.1-1.1-2.7-1-3.8,0c-0.5,0.5-0.8,1.1-0.8,1.9v24c0,0.2-0.2,0.5-0.4,0.6
				c-0.2,0.1-0.5,0-0.7-0.2l-19.5-26c-0.3-0.4-0.8-0.7-1.4-0.9s-1.1-0.2-1.6,0s-0.9,0.5-1.3,1c-0.3,0.5-0.5,1-0.5,1.6v33.8
				c0,0.7,0.2,1.3,0.8,1.8c1.1,1.1,2.7,1,3.7,0c0.5-0.5,0.8-1.1,0.8-1.9v-24c0-0.2,0.2-0.5,0.4-0.6c0,0,0.1,0,0.2,0
				c0.2,0,0.4,0.1,0.5,0.2l19.6,25.9c0.3,0.5,0.8,0.8,1.3,1s1.1,0.1,1.7,0c0.5-0.2,0.9-0.5,1.3-1c0.3-0.5,0.5-1,0.5-1.5V93
				C205.9,92.2,205.7,91.6,205.1,91.1z"/>
		</g>
		<g>
			<path class="st3" d="M248.2,125.6L248.2,125.6l-16.4-33.8c-0.2-0.5-0.5-0.8-0.9-1.1c-0.4-0.2-0.9-0.4-1.4-0.4s-1,0.1-1.4,0.4
				s-0.8,0.6-1,1.1l-16.5,33.7c-0.3,0.7-0.4,1.3-0.1,2c0.2,0.7,0.7,1.2,1.4,1.5c0.7,0.3,1.3,0.4,2,0.1c0.7-0.2,1.2-0.7,1.6-1.4
				l4.3-8.9c0.1-0.2,0.3-0.3,0.6-0.3h18.3c0.2,0,0.4,0.1,0.5,0.3l4.3,8.9c0.3,0.6,0.8,1.1,1.6,1.3c0.7,0.2,1.3,0.2,2-0.1
				s1.2-0.8,1.4-1.5C248.6,126.9,248.5,126.2,248.2,125.6z M235.9,113c-0.1,0.2-0.3,0.3-0.5,0.3h-11.9c-0.2,0-0.4-0.1-0.5-0.3
				c-0.1-0.2-0.1-0.4,0-0.6l6-12.3c0.1-0.2,0.3-0.3,0.6-0.3c0.2,0,0.4,0.1,0.5,0.3l5.9,12.3C236,112.6,236,112.8,235.9,113z"/>
		</g>
		<g>
			<path class="st3" d="M278,124.6c-0.5-0.5-1.1-0.8-1.9-0.8h-17.4c-0.3,0-0.6-0.3-0.6-0.6V93c0-0.7-0.2-1.4-0.8-1.9
				c-0.5-0.5-1-0.7-1.7-0.7c-0.8,0-1.4,0.2-2,0.8c-0.5,0.5-0.8,1.1-0.8,1.9v33.5c0,0.7,0.2,1.4,0.8,1.9c0.5,0.5,1.1,0.8,1.9,0.8
				h20.6c0.7,0,1.3-0.2,1.9-0.8c0.5-0.5,0.8-1.1,0.8-1.9C278.8,125.7,278.5,125.1,278,124.6z"/>
		</g>
		<path class="st3" d="M305.6,90.8L305.6,90.8c-0.6-0.4-1.2-0.6-2-0.5c-0.7,0.1-1.3,0.5-1.7,1.1L290,108.3c-0.1,0.2-0.3,0.3-0.5,0.3
			s-0.4-0.1-0.5-0.3l-11.9-16.9c-0.4-0.6-1-1-1.7-1.1c-0.1,0-0.3,0-0.5,0c-0.5,0-1,0.1-1.5,0.5c-0.6,0.4-1,1-1.1,1.7s0,1.4,0.5,2
			l14,19.8c0.1,0.1,0.1,0.2,0.1,0.4l-0.2,12c0,0.7,0.2,1.4,0.8,1.9c1,1,2.6,1.1,3.7,0c0.5-0.5,0.8-1.1,0.8-1.8l0.1-12.1
			c0-0.1,0-0.2,0.1-0.3l14-19.8c0.4-0.6,0.6-1.3,0.5-2C306.6,91.8,306.2,91.2,305.6,90.8z"/>
		<path class="st3" d="M339.9,114.9c-0.4-1.1-1-2.2-1.8-3.1s-1.7-1.7-2.8-2.3c-1-0.6-2.2-1-3.5-1.2l-12.4-2.1
			c-1.2-0.2-2.2-0.8-3-1.7c-0.8-0.9-1.2-2-1.2-3.3v-0.5c0-1.4,0.5-2.6,1.5-3.5c1-1,2.2-1.5,3.6-1.5h15.5c0.7,0,1.4-0.2,1.9-0.8
			c0.5-0.5,0.8-1.1,0.8-1.8c0-0.8-0.3-1.4-0.8-1.9s-1.2-0.8-1.9-0.8h-15.5c-1.4,0-2.8,0.3-4,0.8c-1.3,0.5-2.3,1.3-3.3,2.2
			c-0.9,0.9-1.7,2-2.2,3.3s-0.8,2.6-0.8,4v0.5c0,1.2,0.2,2.4,0.6,3.6c0.4,1.1,1,2.2,1.8,3.1s1.7,1.6,2.7,2.3c1.1,0.6,2.2,1,3.5,1.2
			l12.4,2.1c1.2,0.2,2.2,0.8,3,1.7c0.8,0.9,1.2,2,1.2,3.3v0.3c0,1.4-0.5,2.6-1.5,3.6s-2.2,1.5-3.5,1.5h-16.4c-0.7,0-1.3,0.2-1.9,0.8
			c-0.5,0.5-0.8,1.1-0.8,1.9c0,0.7,0.3,1.3,0.8,1.8s1.1,0.8,1.9,0.8h16.4c1.4,0,2.8-0.3,4-0.8s2.3-1.3,3.3-2.2
			c0.9-0.9,1.7-2,2.2-3.3c0.5-1.2,0.8-2.6,0.8-4v-0.4C340.5,117.2,340.3,116,339.9,114.9z"/>
		<path class="st3" d="M375.3,91.3c-0.5-0.5-1.1-0.8-1.9-0.8h-27.9c-0.7,0-1.3,0.2-1.9,0.8c-0.5,0.5-0.8,1.2-0.8,1.9
			c0,0.7,0.2,1.3,0.8,1.9c0.5,0.5,1.1,0.8,1.9,0.8h10.7c0.3,0,0.6,0.3,0.6,0.6v30.3c0,0.7,0.3,1.3,0.8,1.9c1,1,2.6,1.1,3.7,0
			c0.5-0.5,0.8-1.1,0.8-1.8V96.4c0-0.3,0.3-0.6,0.6-0.6h10.7c0.7,0,1.4-0.3,1.9-0.8s0.8-1.1,0.8-1.9C376,92.4,375.8,91.8,375.3,91.3
			z"/>
		<path class="st3" d="M414.5,102.2c-1-2.3-2.4-4.5-4.2-6.2c-1.8-1.8-3.9-3.2-6.2-4.2s-4.9-1.5-7.6-1.5s-5.2,0.5-7.6,1.5
			s-4.5,2.4-6.2,4.2c-1.8,1.8-3.2,3.9-4.2,6.2c-1,2.4-1.5,4.9-1.5,7.6s0.5,5.2,1.5,7.6c1,2.3,2.4,4.5,4.2,6.2
			c1.8,1.8,3.8,3.2,6.2,4.2c4.7,2,10.5,2,15.2,0c2.4-1,4.5-2.4,6.2-4.2c1.8-1.8,3.2-3.9,4.2-6.2c1-2.4,1.5-4.9,1.5-7.6
			C416,107.2,415.5,104.6,414.5,102.2z M409.6,115.4c-0.7,1.7-1.8,3.3-3,4.5c-1.3,1.3-2.8,2.3-4.5,3s-3.6,1.1-5.6,1.1
			c-1.9,0-3.8-0.4-5.5-1.1c-1.7-0.8-3.3-1.8-4.5-3c-1.3-1.3-2.3-2.8-3-4.5c-0.7-1.8-1.1-3.6-1.1-5.6s0.4-3.8,1.1-5.6
			c0.7-1.7,1.8-3.2,3-4.5c1.3-1.3,2.8-2.3,4.5-3c3.5-1.5,7.7-1.5,11.1,0c1.7,0.8,3.2,1.8,4.5,3c1.3,1.3,2.3,2.8,3,4.5
			c0.8,1.7,1.1,3.6,1.1,5.6C410.8,111.8,410.4,113.6,409.6,115.4z"/>
	</g>
</g>
<g id="Layer_3_copy">
	<path class="st3" d="M422.8,131.4c0,1.1-1.7,1.9-3.7,1.9H156c0-0.5,0-0.9,0-1.1c0-0.4,0-1.3,0-2.7h263
		C421.1,129.5,422.8,130.4,422.8,131.4z"/>
	<g>
		<path class="st3" d="M162.4,86.6c-0.3-1.4-0.8-2.7-1.5-3.9c-0.3-0.6-0.8-1.2-1.2-1.7c-1.2,0.7-2.6,1.1-4.1,1.1
			c-1.6,0-3.1-0.5-4.4-1.3c-0.4,0.4-0.8,0.8-1.1,1.3c-0.7,1-1.3,2.2-1.9,3.6c-0.5,1.3-1,2.8-1.3,4.3c-0.2,0.9-0.3,14.7-0.5,24.8
			c-0.1,7.2-0.2,12.8-0.2,13.4c-0.2,1.5-0.2,2.9-0.2,4.3c0,0.4,0,0.9,0,1.4c0,0.5,0,1,0,1.5c0,0.7,0,1.4,0.1,2.1
			c0,0.2,0.1,3.7,0.1,5c0.3,0.2,0.8,0.3,1.1,0.6c1.5,1,2.6,2.4,3.3,4c0-2.8-0.1-11.5,0-11.9c0.1-0.8,0.5-0.9,0.8-0.9
			c1-0.1,2.1-0.2,3.2-0.2h0.6c1,0,2.1,0,3.3,0c0.1,0,0.1,1.7,0.1,2.1c0,0.5,0,1.1,0,1.6c0,0.6,0,1.2-0.1,1.7s-0.1,13.7-0.1,19
			c0.1-0.2,0.2-0.3,0.3-0.5c0.9-1.5,2.3-2.6,4-3.2c0.1-3.7,0.1-5.4,0.1-10c0.1-4.1,0.1-7.8,0.1-10v-0.3c0-0.1,0-0.2,0-0.3
			c0-0.6,0-1,0-1.3c0-0.4,0-1.5,0-3.1c0-0.1,0-0.2,0-0.3s0-0.2,0-0.3c0.1-9.9,0.1-35.1,0.1-38.1C162.9,89.4,162.7,88,162.4,86.6z
			 M158.1,129.2c-0.3,0.2-0.7,0.3-1.1,0.3h-5.5c-0.2,0-0.5-0.1-0.7-0.3c-0.2-0.2-0.3-0.4-0.3-0.6c0-0.3,0.1-6.2,0.1-12.5
			c0.1-13,0.1-22.9,0.2-23.4c0.1-0.8,0.3-1.6,0.5-2.4c0.2-0.8,0.4-1.6,0.6-2.4c0.3-0.8,0.6-1.6,0.9-2.2s0.8-1.2,1.2-1.6
			c0.9-0.9,2.2-0.9,3,0.1c0.3,0.5,0.6,1.1,0.9,1.8c0.2,0.7,0.4,1.5,0.6,2.4c0.1,0.9,0.2,1.7,0.3,2.6c0.1,0.9,0.1,1.7,0.1,2.5
			c0,0.8,0,33.8,0,34.2c0,0.5-0.2,0.9-0.4,1.2C158.4,128.9,158.3,129.1,158.1,129.2z"/>
		<g>
			<g>
				<path class="st3" d="M171.6,157.1c-0.4-1.8-1.4-3.3-2.9-4.3c0,0,0,0,0,0c-1.1-0.7-2.3-1.1-3.6-1.1c-0.5,0-1,0.1-1.4,0.2
					l-0.6,0.2c-0.1,0-0.2,0.1-0.3,0.1c-0.1,0.1-0.3,0.1-0.3,0.1c-1.2,0.5-2.3,1.4-3,2.5c-0.3,0.6-0.6,1.1-0.8,1.6
					c0,0.1-0.1,0.3-0.1,0.6c0,0,0,0,0,0.1c0,0,0,0.1,0,0.1c0,0.1,0,0.2-0.1,0.3c-0.1,0.7,0,1.5,0.1,2.3c0.4,1.7,1.4,3.2,2.9,4.2
					c1.5,1,3.3,1.3,5.1,0.9c1.8-0.4,3.2-1.4,4.2-2.9C171.6,160.5,171.9,158.8,171.6,157.1z M168.7,160.8
					C168.7,160.8,168.7,160.8,168.7,160.8c-0.7,1-1.7,1.7-2.8,1.9c-0.3,0.1-0.6,0.1-0.9,0.1c-0.9,0-1.7-0.2-2.3-0.7
					c-1-0.7-1.7-1.6-1.9-2.8c-0.1-0.4-0.1-0.7-0.1-1c0-0.2,0-0.4,0.1-0.7c0.1-0.5,0.3-1,0.6-1.5c0.1-0.2,0.2-0.3,0.4-0.5
					c0,0,0-0.1,0.1-0.1c0.1-0.1,0.2-0.3,0.4-0.4c0.6-0.5,1.2-0.8,1.9-1c1.1-0.2,2.3,0,3.3,0.6c1,0.6,1.7,1.6,1.9,2.8
					C169.5,158.7,169.3,159.9,168.7,160.8z"/>
			</g>
		</g>
		<g>
			<g>
				<path class="st3" d="M161.9,74.7c-0.4-1.7-1.4-3.2-2.9-4.2c0,0,0,0,0,0c-1.1-0.7-2.3-1.1-3.6-1.1c-0.5,0-1,0.1-1.4,0.2
					c-1.8,0.4-3.2,1.4-4.2,2.9c-1,1.5-1.3,3.3-0.9,5c0.4,1.6,1.3,3,2.6,3.9c0,0,0.1,0.1,0.1,0.1c0,0,0.1,0.1,0.1,0.1c0,0,0,0,0,0
					c0.1,0,0.1,0.1,0.2,0.1c0,0,0.1,0,0.1,0.1c0,0,0,0,0.1,0c1.1,0.6,2.3,1,3.4,1c1.1,0,2.2-0.3,3.1-0.8c0.1,0,0.1-0.1,0.2-0.1
					c0.1,0,0.1-0.1,0.2-0.1c0,0,0.1,0,0.1-0.1c0,0,0.1-0.1,0.1-0.1c0.7-0.4,1.3-1,1.9-1.9C162,78.3,162.3,76.5,161.9,74.7z
					 M159.1,78.6c-0.7,1-1.6,1.7-2.8,1.9c-0.3,0.1-0.7,0.1-0.9,0.1c-0.9,0-1.7-0.3-2.4-0.7c-1-0.7-1.7-1.7-1.9-2.8
					c-0.2-1.1,0-2.2,0.6-3.2c0,0,0,0,0,0c0.7-1,1.6-1.7,2.8-1.9c1.1-0.2,2.3,0,3.2,0.6C159.8,73.8,160.4,76.5,159.1,78.6z"/>
			</g>
		</g>
		<g>
			<g>
				<path class="st3" d="M147.5,141.8c-0.1-0.1-0.2-0.1-0.4-0.2c-0.1-0.1-0.2-0.1-0.3-0.2l-0.3-0.2c0,0,0,0-0.1,0
					c-0.1,0-0.2,0-0.2-0.1c-0.7-0.3-1.4-0.4-2.4-0.4c-2.3,0-4.4,1.1-5.6,3c-1,1.5-1.3,3.3-0.9,5c0.4,1.8,1.4,3.2,2.9,4.2
					c1.5,1,3.3,1.3,5,0.9c1.7-0.4,3.2-1.4,4.2-2.9c0.3-0.5,0.6-1.1,0.8-1.8c0-0.2,0.1-0.3,0.1-0.5c0-0.1,0-0.1,0-0.2
					c0-0.1,0-0.3,0-0.4c0-0.2,0-0.3,0.1-0.5C150.6,145.4,149.5,143.2,147.5,141.8z M148.2,148.3c0,0.3-0.1,0.6-0.3,0.9
					c-0.1,0.1-0.2,0.3-0.3,0.5c0,0,0,0.1-0.1,0.1c-0.7,1-1.7,1.7-2.8,1.9c-0.3,0.1-0.7,0.1-0.9,0.1c-0.9,0-1.7-0.2-2.3-0.7
					c-1-0.7-1.7-1.6-1.9-2.8c-0.2-1.1,0-2.3,0.6-3.2c0.8-1.2,2.2-2,3.7-2c0.9,0,1.7,0.2,2.3,0.7c0.4,0.3,0.7,0.6,1.1,1
					c0.3,0.3,0.4,0.6,0.5,0.8C148.3,146.5,148.4,147.4,148.2,148.3z"/>
			</g>
		</g>
	</g>
	<g>
		<g>
			<path class="st3" d="M201.9,88.1c-1.1-1.1-2.7-1-3.8,0c-0.5,0.5-0.8,1.1-0.8,1.9v24.2c0,0.2-0.2,0.5-0.4,0.6
				c-0.2,0.1-0.5,0-0.7-0.2l-19.7-26.2c-0.3-0.4-0.8-0.7-1.4-0.9s-1.1-0.2-1.6,0c-0.5,0.2-0.9,0.5-1.3,1c-0.3,0.5-0.5,1-0.5,1.6
				v34.1c0,0.7,0.2,1.3,0.8,1.8c1.1,1.1,2.7,1,3.7,0c0.5-0.5,0.8-1.1,0.8-1.9V99.9c0-0.2,0.2-0.5,0.4-0.6c0,0,0.1,0,0.2,0
				c0.2,0,0.4,0.1,0.5,0.2l19.8,26.1c0.3,0.5,0.8,0.8,1.3,1c0.5,0.2,1.1,0.1,1.7,0c0.5-0.2,0.9-0.5,1.3-1c0.3-0.5,0.5-1,0.5-1.5V90
				C202.7,89.2,202.5,88.6,201.9,88.1z"/>
		</g>
		<g>
			<path class="st3" d="M245.4,122.9L245.4,122.9l-16.6-34.1c-0.2-0.5-0.5-0.8-0.9-1.1c-0.4-0.2-0.9-0.4-1.4-0.4
				c-0.5,0-1,0.1-1.4,0.4s-0.8,0.6-1,1.1l-16.7,34c-0.3,0.7-0.4,1.3-0.1,2c0.2,0.7,0.7,1.2,1.4,1.5c0.7,0.3,1.3,0.4,2,0.1
				c0.7-0.2,1.2-0.7,1.6-1.4l4.3-9c0.1-0.2,0.3-0.3,0.6-0.3h18.5c0.2,0,0.4,0.1,0.5,0.3l4.3,9c0.3,0.6,0.8,1.1,1.6,1.3
				c0.7,0.2,1.3,0.2,2-0.1c0.7-0.3,1.2-0.8,1.4-1.5C245.8,124.2,245.7,123.5,245.4,122.9z M233,110.2c-0.1,0.2-0.3,0.3-0.5,0.3h-12
				c-0.2,0-0.4-0.1-0.5-0.3c-0.1-0.2-0.1-0.4,0-0.6l6.1-12.4c0.1-0.2,0.3-0.3,0.6-0.3c0.2,0,0.4,0.1,0.5,0.3l6,12.4
				C233.1,109.8,233.1,110,233,110.2z"/>
		</g>
		<g>
			<path class="st3" d="M275.5,121.9c-0.5-0.5-1.1-0.8-1.9-0.8H256c-0.3,0-0.6-0.3-0.6-0.6V90c0-0.7-0.2-1.4-0.8-1.9
				c-0.5-0.5-1-0.7-1.7-0.7c-0.8,0-1.4,0.2-2,0.8c-0.5,0.5-0.8,1.1-0.8,1.9v33.8c0,0.7,0.2,1.4,0.8,1.9c0.5,0.5,1.1,0.8,1.9,0.8
				h20.8c0.7,0,1.3-0.2,1.9-0.8c0.5-0.5,0.8-1.1,0.8-1.9C276.3,123,276,122.4,275.5,121.9z"/>
		</g>
		<path class="st3" d="M303.4,87.8L303.4,87.8c-0.6-0.4-1.2-0.6-2-0.5c-0.7,0.1-1.3,0.5-1.7,1.1l-12,17.1c-0.1,0.2-0.3,0.3-0.5,0.3
			c-0.2,0-0.4-0.1-0.5-0.3l-12-17.1c-0.4-0.6-1-1-1.7-1.1c-0.1,0-0.3,0-0.5,0c-0.5,0-1,0.1-1.5,0.5c-0.6,0.4-1,1-1.1,1.7
			c-0.1,0.7,0,1.4,0.5,2l14.1,20c0.1,0.1,0.1,0.2,0.1,0.4l-0.2,12.1c0,0.7,0.2,1.4,0.8,1.9c1,1,2.6,1.1,3.7,0
			c0.5-0.5,0.8-1.1,0.8-1.8l0.1-12.2c0-0.1,0-0.2,0.1-0.3l14.1-20c0.4-0.6,0.6-1.3,0.5-2C304.4,88.8,304,88.2,303.4,87.8z"/>
		<path class="st3" d="M338,112.1c-0.4-1.1-1-2.2-1.8-3.1c-0.8-0.9-1.7-1.7-2.8-2.3c-1-0.6-2.2-1-3.5-1.2l-12.5-2.1
			c-1.2-0.2-2.2-0.8-3-1.7s-1.2-2-1.2-3.3v-0.5c0-1.4,0.5-2.6,1.5-3.5c1-1,2.2-1.5,3.6-1.5h15.6c0.7,0,1.4-0.2,1.9-0.8
			c0.5-0.5,0.8-1.1,0.8-1.8c0-0.8-0.3-1.4-0.8-1.9c-0.5-0.5-1.2-0.8-1.9-0.8h-15.6c-1.4,0-2.8,0.3-4,0.8c-1.3,0.5-2.3,1.3-3.3,2.2
			c-0.9,0.9-1.7,2-2.2,3.3c-0.5,1.3-0.8,2.6-0.8,4v0.5c0,1.2,0.2,2.4,0.6,3.6c0.4,1.1,1,2.2,1.8,3.1s1.7,1.6,2.7,2.3
			c1.1,0.6,2.2,1,3.5,1.2l12.5,2.1c1.2,0.2,2.2,0.8,3,1.7c0.8,0.9,1.2,2,1.2,3.3v0.3c0,1.4-0.5,2.6-1.5,3.6c-1,1-2.2,1.5-3.5,1.5
			h-16.6c-0.7,0-1.3,0.2-1.9,0.8c-0.5,0.5-0.8,1.1-0.8,1.9c0,0.7,0.3,1.3,0.8,1.8c0.5,0.5,1.1,0.8,1.9,0.8h16.6c1.4,0,2.8-0.3,4-0.8
			c1.2-0.5,2.3-1.3,3.3-2.2c0.9-0.9,1.7-2,2.2-3.3c0.5-1.2,0.8-2.6,0.8-4v-0.4C338.6,114.5,338.4,113.2,338,112.1z"/>
		<path class="st3" d="M373.7,88.3c-0.5-0.5-1.1-0.8-1.9-0.8h-28.2c-0.7,0-1.3,0.2-1.9,0.8c-0.5,0.5-0.8,1.2-0.8,1.9
			c0,0.7,0.2,1.3,0.8,1.9c0.5,0.5,1.1,0.8,1.9,0.8h10.8c0.3,0,0.6,0.3,0.6,0.6v30.6c0,0.7,0.3,1.3,0.8,1.9c1,1,2.6,1.1,3.7,0
			c0.5-0.5,0.8-1.1,0.8-1.8V93.5c0-0.3,0.3-0.6,0.6-0.6h10.8c0.7,0,1.4-0.3,1.9-0.8c0.5-0.5,0.8-1.1,0.8-1.9
			C374.4,89.4,374.2,88.8,373.7,88.3z"/>
		<path class="st3" d="M413.3,99.3c-1-2.3-2.4-4.5-4.2-6.3c-1.8-1.8-3.9-3.2-6.3-4.2c-2.3-1-4.9-1.5-7.7-1.5c-2.7,0-5.2,0.5-7.7,1.5
			c-2.4,1-4.5,2.4-6.3,4.2c-1.8,1.8-3.2,3.9-4.2,6.3c-1,2.4-1.5,4.9-1.5,7.7c0,2.7,0.5,5.2,1.5,7.7c1,2.3,2.4,4.5,4.2,6.3
			c1.8,1.8,3.8,3.2,6.3,4.2c4.7,2,10.6,2,15.3,0c2.4-1,4.5-2.4,6.3-4.2c1.8-1.8,3.2-3.9,4.2-6.3c1-2.4,1.5-4.9,1.5-7.7
			C414.8,104.4,414.3,101.7,413.3,99.3z M408.3,112.6c-0.7,1.7-1.8,3.3-3,4.5c-1.3,1.3-2.8,2.3-4.5,3c-1.7,0.7-3.6,1.1-5.7,1.1
			c-1.9,0-3.8-0.4-5.6-1.1c-1.7-0.8-3.3-1.8-4.5-3c-1.3-1.3-2.3-2.8-3-4.5c-0.7-1.8-1.1-3.6-1.1-5.7s0.4-3.8,1.1-5.7
			c0.7-1.7,1.8-3.2,3-4.5c1.3-1.3,2.8-2.3,4.5-3c3.5-1.5,7.8-1.5,11.2,0c1.7,0.8,3.2,1.8,4.5,3c1.3,1.3,2.3,2.8,3,4.5
			c0.8,1.7,1.1,3.6,1.1,5.7C409.5,109,409.1,110.8,408.3,112.6z"/>
	</g>
</g>
</svg>
