<?xml version="1.0" encoding="UTF-8"?>
<!-- Generator: visioncortex VTracer 0.6.3 -->
<svg version="1.1" xmlns="http://www.w3.org/2000/svg" width="1280" height="1280">
<path d="M0 0 C422.4 0 844.8 0 1280 0 C1280 422.4 1280 844.8 1280 1280 C857.6 1280 435.2 1280 0 1280 C0 857.6 0 435.2 0 0 Z " fill="#EB2123" transform="translate(0,0)"/>
<path d="M0 0 C20.34 12.28 31.7 30.94 37.44 53.54 C39.36 61.99 39.2 70.37 39 79 C38.97 80.19 38.97 80.19 38.95 81.41 C37.69 100.17 27.58 119.47 13.84 131.96 C8.43 136.48 2.28 139.54 -4.2 142.23 C-5.89 142.95 -7.53 143.77 -9.16 144.6 C-14.47 146.87 -20.31 147.1 -26 147.69 C-27.15 147.82 -28.3 147.95 -29.48 148.08 C-44.01 149.66 -44.01 149.66 -49 148 C-50.87 147.85 -52.75 147.73 -54.62 147.62 C-60.2 147.18 -64.84 146.11 -70 144 C-70.84 143.68 -71.68 143.37 -72.54 143.04 C-85.79 137.63 -98.56 127.23 -106 115 C-106.95 113.7 -106.95 113.7 -107.91 112.38 C-110.37 108.4 -111.77 104.5 -113.19 100.06 C-113.45 99.29 -113.71 98.52 -113.97 97.72 C-119.26 81.56 -119.06 61.23 -114 45 C-113.64 43.8 -113.27 42.6 -112.9 41.37 C-107.25 24.21 -94.31 8.29 -78 0 C-69.79 -3.45 -62.46 -6.05 -53.59 -6.72 C-34.89 -8.75 -17.45 -8.66 0 0 Z " fill="#FCFCFC" transform="translate(328,569)"/>
<path d="M0 0 C1.62 0.1 3.25 0.18 4.88 0.25 C22.56 1.79 36.82 12.96 48 26 C49.37 27.97 50.71 29.97 52 32 C52.49 32.63 52.98 33.26 53.49 33.9 C56.06 37.48 57.45 41.55 59.06 45.62 C59.41 46.48 59.77 47.33 60.13 48.21 C68.72 69.68 66.66 94.02 57.83 115.07 C55.3 120.76 52.18 125.38 48 130 C47.52 130.65 47.03 131.29 46.53 131.96 C36.85 144.46 20.73 152.06 5.44 154.31 C-17.87 156.92 -42.09 155.86 -61.44 141.18 C-72.06 132.13 -80.79 123.16 -86 110 C-86.43 108.92 -86.86 107.85 -87.3 106.74 C-90.68 97.51 -91.86 89.28 -91.75 79.38 C-91.75 78.69 -91.74 78 -91.74 77.29 C-91.62 60.8 -87.26 47.17 -79 33 C-78.52 32.18 -78.04 31.35 -77.55 30.5 C-70.26 19.07 -60.92 11.96 -49 6 C-48.17 5.58 -47.34 5.16 -46.48 4.72 C-33.95 -0.93 -13.28 -4.43 0 0 Z " fill="#FCFCFC" transform="translate(1151,562)"/>
<path d="M0 0 C12.88 0.08 25.77 0.18 38.65 0.29 C44.63 0.34 50.61 0.38 56.6 0.42 C62.37 0.46 68.15 0.51 73.93 0.56 C76.13 0.58 78.33 0.59 80.53 0.6 C83.62 0.62 86.71 0.65 89.8 0.68 C91.15 0.68 91.15 0.68 92.53 0.69 C105.35 0.86 113.39 4.45 122.69 13.25 C127 17.74 130.22 22.44 133 28 C133.34 28.67 133.68 29.34 134.03 30.04 C138.46 40.67 136.98 55.46 133 66 C128.07 76.31 119.69 84.91 109 89 C108.67 89.66 108.34 90.32 108 91 C108.56 91.21 109.11 91.41 109.69 91.62 C115.27 94.94 118.12 100.7 120.81 106.38 C121.5 107.8 122.2 109.22 122.89 110.65 C123.41 111.73 123.41 111.73 123.95 112.84 C124.96 114.92 126 116.98 127.05 119.04 C130.83 126.46 134.38 133.94 137.65 141.6 C138.92 144.55 140.22 147.42 141.7 150.27 C143 153 143 153 143 156 C137.38 156.12 131.75 156.21 126.13 156.27 C124.22 156.3 122.3 156.33 120.39 156.38 C117.64 156.44 114.89 156.47 112.14 156.49 C110.86 156.53 110.86 156.53 109.55 156.57 C103.61 156.57 103.61 156.57 100.53 153.69 C98.67 150.42 97.12 147.09 95.69 143.62 C95.08 142.2 94.48 140.78 93.87 139.35 C93.56 138.63 93.25 137.91 92.94 137.17 C90.43 131.38 87.7 125.69 85 120 C84.63 119.21 84.26 118.42 83.88 117.6 C80.65 110.84 76.71 102.74 70 99 C63.57 97.74 56.96 97.88 50.44 97.94 C49.52 97.94 48.61 97.95 47.67 97.95 C45.45 97.96 43.22 97.98 41 98 C39.71 100.58 39.84 102.48 39.79 105.37 C39.77 106.49 39.75 107.61 39.73 108.76 C39.71 110.59 39.71 110.59 39.68 112.45 C39.66 113.69 39.64 114.93 39.62 116.2 C39.57 119.5 39.52 122.8 39.47 126.1 C39.42 129.46 39.36 132.83 39.31 136.19 C39.2 142.79 39.1 149.4 39 156 C33.63 156.19 28.25 156.37 22.87 156.54 C21.04 156.6 19.22 156.66 17.39 156.72 C14.76 156.82 12.13 156.9 9.51 156.98 C8.28 157.02 8.28 157.02 7.02 157.07 C5.01 157.13 3.01 157.07 1 157 C-1 155 -1 155 -1.25 152.43 C-1.25 151.33 -1.25 150.23 -1.25 149.1 C-1.25 147.84 -1.26 146.58 -1.26 145.29 C-1.25 143.89 -1.25 142.48 -1.24 141.08 C-1.24 139.61 -1.25 138.14 -1.25 136.67 C-1.25 132.67 -1.25 128.67 -1.24 124.67 C-1.23 120.49 -1.23 116.31 -1.23 112.12 C-1.23 105.09 -1.22 98.07 -1.21 91.04 C-1.19 82.91 -1.18 74.79 -1.19 66.66 C-1.19 58.85 -1.18 51.04 -1.17 43.22 C-1.17 39.9 -1.17 36.57 -1.17 33.25 C-1.17 29.33 -1.16 25.41 -1.15 21.49 C-1.15 20.05 -1.15 18.61 -1.15 17.18 C-1.15 15.21 -1.14 13.25 -1.13 11.28 C-1.13 10.18 -1.13 9.08 -1.13 7.95 C-1.01 5.19 -0.63 2.69 0 0 Z " fill="#FCFCFC" transform="translate(387,561)"/>
<path d="M0 0 C4.02 4.72 7 9.56 9.85 15.06 C11.35 17.83 13.19 20.12 15.19 22.54 C15.62 23.43 16.06 24.31 16.5 25.23 C18.46 29.07 20.87 32.39 23.37 35.9 C25.09 38.39 26.66 40.92 28.19 43.54 C30.1 46.79 32.1 49.87 34.32 52.91 C38.53 58.82 42.17 65.07 45.84 71.32 C50.36 80.07 50.36 80.07 57.19 86.54 C57.19 87.2 57.19 87.86 57.19 88.54 C57.85 88.54 58.51 88.54 59.19 88.54 C59.05 87.5 58.91 86.46 58.76 85.4 C57.44 75.28 56.91 65.38 56.96 55.18 C56.96 53.69 56.96 52.2 56.96 50.71 C56.96 47.64 56.97 44.56 56.99 41.48 C57 37.54 57.01 33.6 57.01 29.67 C57.01 26.61 57.01 23.56 57.02 20.5 C57.02 19.05 57.02 17.59 57.02 16.14 C57.03 14.12 57.04 12.1 57.05 10.08 C57.05 8.93 57.05 7.79 57.06 6.61 C57.18 3.8 57.55 1.27 58.19 -1.46 C64.01 -1.49 69.83 -1.5 75.65 -1.52 C77.64 -1.52 79.62 -1.53 81.6 -1.54 C84.44 -1.55 87.28 -1.55 90.12 -1.56 C91.02 -1.56 91.91 -1.57 92.83 -1.57 C94.95 -1.57 97.07 -1.52 99.19 -1.46 C100.19 -0.46 100.19 -0.46 100.3 2.07 C100.29 3.2 100.28 4.34 100.27 5.51 C100.27 6.8 100.26 8.1 100.25 9.44 C100.24 10.89 100.23 12.34 100.21 13.79 C100.2 15.31 100.19 16.82 100.18 18.34 C100.16 22.47 100.12 26.61 100.09 30.74 C100.06 35.05 100.03 39.36 100 43.68 C99.94 51.85 99.88 60.03 99.82 68.2 C99.75 77.5 99.68 86.81 99.61 96.11 C99.48 115.25 99.34 134.4 99.19 153.54 C93.69 153.56 88.19 153.58 82.69 153.59 C80.82 153.6 78.95 153.61 77.08 153.61 C74.39 153.63 71.7 153.63 69.02 153.64 C68.18 153.64 67.34 153.65 66.48 153.65 C63.13 153.65 60.39 153.61 57.19 152.54 C57.19 151.88 57.19 151.22 57.19 150.54 C56.2 150.21 55.21 149.88 54.19 149.54 C52.4 146.91 50.79 144.28 49.19 141.54 C47.76 139.1 46.32 136.66 44.88 134.23 C44.49 133.57 44.1 132.92 43.7 132.24 C41.38 128.37 38.92 124.71 36.19 121.1 C32.38 116.03 29.33 110.68 26.34 105.11 C24.24 101.25 21.96 97.97 19.19 94.54 C17.46 91.62 15.82 88.68 14.19 85.71 C12.67 82.98 11.13 80.47 9.18 78.03 C6.84 75.1 5.18 72.04 3.44 68.73 C2.83 67.57 2.21 66.4 1.58 65.21 C1.12 64.33 0.66 63.45 0.19 62.54 C-0.96 66.68 -0.98 70.71 -1.01 74.98 C-1.02 75.83 -1.03 76.68 -1.04 77.55 C-1.08 80.36 -1.1 83.16 -1.12 85.96 C-1.15 87.91 -1.17 89.85 -1.19 91.8 C-1.24 96.91 -1.29 102.03 -1.34 107.14 C-1.39 112.37 -1.45 117.59 -1.5 122.81 C-1.61 133.05 -1.71 143.3 -1.81 153.54 C-7.34 153.56 -12.88 153.58 -18.42 153.59 C-20.3 153.6 -22.19 153.61 -24.07 153.61 C-26.77 153.63 -29.48 153.63 -32.18 153.64 C-33.03 153.64 -33.88 153.65 -34.75 153.65 C-36.77 153.65 -38.79 153.6 -40.81 153.54 C-41.81 152.54 -41.81 152.54 -41.93 150.01 C-41.93 148.88 -41.93 147.74 -41.93 146.57 C-41.93 145.28 -41.93 143.98 -41.93 142.64 C-41.93 141.19 -41.93 139.74 -41.92 138.29 C-41.92 136.77 -41.92 135.25 -41.92 133.74 C-41.92 129.6 -41.92 125.47 -41.91 121.34 C-41.9 117.03 -41.9 112.71 -41.9 108.4 C-41.9 100.23 -41.89 92.05 -41.88 83.88 C-41.87 74.57 -41.86 65.27 -41.86 55.97 C-41.85 36.83 -41.83 17.68 -41.81 -1.46 C-36.92 -1.63 -32.02 -1.79 -27.13 -1.94 C-25.47 -2 -23.8 -2.05 -22.14 -2.11 C-19.74 -2.19 -17.35 -2.27 -14.95 -2.34 C-13.84 -2.38 -13.84 -2.38 -12.71 -2.42 C-3.33 -2.69 -3.33 -2.69 0 0 Z " fill="#FCFCFC" transform="translate(592.80859375,563.4609375)"/>
<path d="M0 0 C0.9 0.07 1.8 0.14 2.73 0.21 C22.76 2.11 36.57 12.7 49.25 27.48 C64.24 46.61 67.39 69.81 65.06 93.44 C63.74 102.69 61.06 114.5 54.28 121.19 C53.83 122.11 53.38 123.03 52.92 123.98 C45.98 137.55 32.13 146.69 18.06 151.53 C5.39 155.62 -7.46 155.33 -20.64 155.28 C-22.35 155.28 -24.06 155.28 -25.77 155.28 C-30.24 155.28 -34.71 155.27 -39.17 155.26 C-43.74 155.25 -48.32 155.24 -52.89 155.24 C-61.83 155.22 -70.78 155.21 -79.72 155.19 C-80.88 152.87 -80.85 151.54 -80.84 148.96 C-80.84 148.07 -80.85 147.19 -80.85 146.27 C-80.84 144.81 -80.84 144.81 -80.84 143.32 C-80.84 142.3 -80.84 141.27 -80.84 140.22 C-80.84 136.82 -80.83 133.42 -80.82 130.02 C-80.82 127.67 -80.82 125.32 -80.82 122.97 C-80.81 116.77 -80.8 110.57 -80.79 104.38 C-80.78 98.05 -80.78 91.73 -80.77 85.41 C-80.76 73 -80.74 60.6 -80.72 48.19 C-75.04 48.16 -69.37 48.14 -63.69 48.13 C-61.75 48.13 -59.82 48.12 -57.89 48.11 C-55.11 48.1 -52.34 48.09 -49.57 48.09 C-48.27 48.08 -48.27 48.08 -46.93 48.07 C-44.86 48.07 -42.79 48.12 -40.72 48.19 C-39.72 49.19 -39.72 49.19 -39.6 52 C-39.6 53.26 -39.61 54.52 -39.61 55.82 C-39.61 56.51 -39.61 57.2 -39.61 57.92 C-39.61 60.22 -39.62 62.52 -39.62 64.82 C-39.63 66.41 -39.63 68 -39.63 69.59 C-39.63 73.78 -39.64 77.97 -39.65 82.17 C-39.66 86.44 -39.67 90.72 -39.67 95 C-39.68 103.39 -39.7 111.79 -39.72 120.19 C-34.7 121.86 -29.44 121.37 -24.17 121.37 C-22.13 121.37 -20.08 121.39 -18.03 121.41 C-4.34 121.6 -4.34 121.6 7.28 115.19 C8.08 114.94 8.89 114.69 9.72 114.44 C17.02 110.87 19.65 102.39 22.3 95.24 C27.2 79.99 24.63 64.61 17.97 50.4 C14.2 43.2 9.29 38.09 1.36 35.58 C-5.01 34.08 -11.15 33.88 -17.67 33.87 C-18.83 33.86 -19.99 33.85 -21.19 33.84 C-25 33.81 -28.82 33.79 -32.63 33.77 C-35.29 33.75 -37.94 33.73 -40.6 33.71 C-46.86 33.67 -53.11 33.63 -59.37 33.6 C-66.5 33.56 -73.63 33.51 -80.76 33.46 C-95.41 33.36 -110.07 33.27 -124.72 33.19 C-124.72 32.53 -124.72 31.87 -124.72 31.19 C-125.38 31.19 -126.04 31.19 -126.72 31.19 C-130.32 22.59 -133.86 14.06 -136.72 5.19 C-137.37 3.84 -138.03 2.51 -138.72 1.19 C-137.09 -0.44 -135.26 0.04 -133.01 0.02 C-131.99 0 -130.97 -0.01 -129.92 -0.02 C-128.23 -0.04 -128.23 -0.04 -126.5 -0.05 C-125.32 -0.06 -124.13 -0.08 -122.92 -0.09 C-119.66 -0.12 -116.4 -0.15 -113.14 -0.18 C-111.09 -0.2 -109.05 -0.22 -107 -0.24 C-99.83 -0.31 -92.67 -0.37 -85.5 -0.43 C-78.88 -0.48 -72.25 -0.54 -65.63 -0.62 C-59.91 -0.68 -54.19 -0.73 -48.47 -0.77 C-45.07 -0.8 -41.67 -0.83 -38.27 -0.87 C-25.48 -1.01 -12.76 -1.04 0 0 Z " fill="#FCFCFC" transform="translate(975.72216796875,561.813232421875)"/>
<path d="M0 0 C12.73 -0.09 25.45 -0.16 38.18 -0.21 C44.09 -0.23 49.99 -0.26 55.9 -0.3 C61.6 -0.35 67.3 -0.37 73 -0.38 C75.18 -0.39 77.36 -0.4 79.53 -0.42 C82.58 -0.45 85.62 -0.46 88.66 -0.45 C90.02 -0.48 90.02 -0.48 91.41 -0.5 C97.5 -0.46 97.5 -0.46 100.04 1.89 C101.38 4.85 101.86 7.69 102.38 10.88 C102.82 13.07 102.82 13.07 104.45 14.36 C106.31 16.33 106.7 17.74 107.36 20.35 C109.19 26.9 111.72 33.13 114.25 39.44 C117.54 47.69 120.78 55.96 123.81 64.31 C127.03 73.15 130.41 81.92 134.1 90.58 C137.52 98.67 140.58 106.87 143.56 115.12 C149.63 132.33 149.63 132.33 157 149 C157.04 151.33 157.04 153.67 157 156 C151.68 155.98 146.36 155.93 141.04 155.85 C139.23 155.82 137.42 155.81 135.61 155.8 C133.01 155.8 130.41 155.75 127.8 155.71 C127 155.71 126.19 155.71 125.36 155.72 C121.21 155.61 119.47 155.36 116.07 152.77 C114.1 150.13 112.99 148.14 112.02 145.02 C111.72 144.11 111.43 143.19 111.12 142.24 C110.69 140.82 110.69 140.82 110.25 139.38 C109.95 138.42 109.64 137.47 109.33 136.48 C108.77 134.72 108.22 132.96 107.68 131.19 C107.14 129.45 106.57 127.72 106 126 C77.29 126.5 77.29 126.5 48 127 C45.02 133.72 42.43 140.29 40.11 147.22 C38.21 152.79 38.21 152.79 36 155 C32.99 155.18 30.07 155.23 27.05 155.2 C25.73 155.19 25.73 155.19 24.37 155.19 C21.54 155.18 18.71 155.15 15.88 155.12 C13.96 155.11 12.04 155.11 10.12 155.1 C5.41 155.08 0.71 155.04 -4 155 C-4.61 153.15 -4.61 153.15 -5 151 C-4.07 149.65 -3.13 148.31 -2.16 146.99 C-0.69 144.47 0.01 141.97 0.82 139.16 C2.97 131.93 5.55 124.92 8.25 117.88 C8.49 117.25 8.73 116.62 8.97 115.98 C12.29 107.27 15.72 98.62 19.45 90.07 C21.27 85.88 22.8 81.68 24.21 77.33 C25.32 74.06 26.62 70.88 27.92 67.68 C29.91 62.73 31.76 57.74 33.62 52.75 C34.02 51.7 34.41 50.65 34.82 49.57 C36.63 44.74 38.42 39.91 40 35 C38.21 33.21 35.55 33.85 33.14 33.82 C31.94 33.8 30.74 33.78 29.51 33.75 C26.97 33.71 24.44 33.68 21.9 33.66 C20.7 33.63 19.5 33.6 18.26 33.57 C17.16 33.56 16.05 33.55 14.92 33.53 C11.32 32.88 10.22 31.86 8 29 C6.83 26.82 6.83 26.82 5.89 24.48 C5.55 23.62 5.21 22.76 4.85 21.88 C4.51 20.99 4.17 20.1 3.81 19.19 C3.46 18.31 3.1 17.43 2.74 16.53 C0.82 11.67 -0.65 7.23 -1 2 C-0.67 1.34 -0.34 0.68 0 0 Z " fill="#FCFCFC" transform="translate(717,562)"/>
<path d="M0 0 C17.7 -0.05 35.4 -0.08 53.09 -0.1 C61.31 -0.11 69.53 -0.13 77.74 -0.15 C84.9 -0.17 92.06 -0.18 99.22 -0.19 C103.02 -0.19 106.81 -0.2 110.6 -0.21 C114.17 -0.22 117.74 -0.23 121.3 -0.23 C123.24 -0.23 125.18 -0.24 127.12 -0.25 C128.27 -0.25 129.41 -0.24 130.6 -0.24 C131.6 -0.24 132.6 -0.24 133.63 -0.25 C136 0 136 0 138 2 C138.18 4.99 138.23 7.88 138.19 10.88 C138.19 12.07 138.19 12.07 138.19 13.29 C138.14 19.89 137.61 26.43 137 33 C136.14 33.02 136.14 33.02 135.26 33.03 C129.31 33.14 123.35 33.25 117.4 33.37 C115.18 33.42 112.95 33.46 110.73 33.5 C107.54 33.55 104.35 33.62 101.16 33.68 C99.66 33.71 99.66 33.71 98.13 33.73 C97.21 33.75 96.28 33.77 95.34 33.79 C94.52 33.81 93.71 33.83 92.87 33.84 C90.99 33.8 90.99 33.8 90 35 C89.89 36.4 89.86 37.81 89.85 39.22 C89.84 40.13 89.83 41.04 89.82 41.98 C89.82 42.99 89.81 44 89.81 45.04 C89.8 46.09 89.79 47.15 89.79 48.23 C89.77 50.54 89.75 52.84 89.74 55.14 C89.72 58.79 89.69 62.44 89.66 66.09 C89.6 73.85 89.55 81.61 89.5 89.38 C89.44 98.34 89.38 107.3 89.31 116.26 C89.28 119.84 89.26 123.42 89.24 127.01 C89.22 129.23 89.21 131.45 89.19 133.67 C89.19 134.66 89.18 135.64 89.18 136.66 C89.12 143.21 88.6 149.44 88 156 C75.46 155.67 62.92 155.34 50 155 C50 154.34 50 153.68 50 153 C49.01 152.67 48.02 152.34 47 152 C47.16 151.27 47.32 150.55 47.49 149.8 C47.96 147.2 48.13 144.88 48.13 142.25 C48.13 141.32 48.13 140.4 48.14 139.44 C48.13 138.44 48.13 137.43 48.13 136.4 C48.13 135.33 48.13 134.26 48.13 133.16 C48.14 129.64 48.14 126.11 48.13 122.59 C48.13 120.14 48.13 117.69 48.14 115.24 C48.14 110.11 48.14 104.98 48.13 99.85 C48.12 93.26 48.13 86.68 48.13 80.1 C48.14 75.04 48.14 69.98 48.13 64.92 C48.13 62.5 48.13 60.07 48.14 57.64 C48.14 54.25 48.13 50.86 48.13 47.47 C48.13 46.47 48.13 45.46 48.14 44.42 C48.13 43.5 48.13 42.58 48.13 41.62 C48.13 40.82 48.13 40.02 48.13 39.2 C48 37.01 47.6 35.1 47 33 C46.14 33.01 46.14 33.01 45.27 33.01 C39.33 33.06 33.39 33.09 27.46 33.11 C25.24 33.12 23.02 33.13 20.8 33.15 C17.62 33.18 14.44 33.19 11.26 33.2 C9.76 33.21 9.76 33.21 8.24 33.23 C6.86 33.23 6.86 33.23 5.45 33.23 C4.64 33.23 3.82 33.24 2.99 33.24 C1 33 1 33 -1 31 C-1.24 28.14 -1.24 28.14 -1.23 24.53 C-1.23 23.24 -1.23 21.95 -1.22 20.61 C-1.22 19.94 -1.21 19.26 -1.21 18.57 C-1.19 16.51 -1.19 14.45 -1.19 12.39 C-1.14 2.28 -1.14 2.28 0 0 Z " fill="#FCFCFC" transform="translate(64,562)"/>
<path d="M0 0 C10.33 -0.46 20.22 2.29 28.06 9.15 C30.38 12.09 30.38 12.09 32.06 15.15 C32.71 16.2 33.36 17.25 34.03 18.33 C36.23 22.19 37.35 26.02 38.31 30.34 C38.48 31.09 38.65 31.84 38.82 32.61 C41.54 45.54 40.69 59.77 34.19 71.54 C27.79 80.59 19.63 86.87 8.59 88.88 C-3.24 90.15 -13.18 86.67 -22.94 80.15 C-26.92 76.61 -28.43 74.22 -29.94 69.15 C-30.42 68.59 -30.91 68.03 -31.41 67.45 C-33.52 64.28 -33.81 61.11 -34.19 57.4 C-34.31 56.28 -34.31 56.28 -34.43 55.14 C-35.43 44.77 -36.39 29.92 -30.5 20.96 C-29.98 20.37 -29.47 19.77 -28.94 19.15 C-28.53 18.22 -28.11 17.3 -27.69 16.34 C-23.18 8.13 -16.58 4.3 -7.94 1.15 C-5.21 0.44 -2.79 0.22 0 0 Z " fill="#EB2123" transform="translate(1135.9375,594.84765625)"/>
<path d="M0 0 C9.77 9.19 12.73 24.85 13.12 37.62 C12.89 50.08 9.71 62.22 1.19 71.56 C-6.98 79.1 -16.24 81.46 -27.19 81.25 C-37.74 79.91 -49.1 73.96 -55.71 65.62 C-58.17 61.67 -59.3 57.8 -60.19 53.25 C-60.39 52.25 -60.59 51.26 -60.8 50.23 C-63.12 37.69 -63.42 20.85 -56.13 9.68 C-53.95 6.99 -51.72 4.6 -49.19 2.25 C-48.66 1.71 -48.13 1.18 -47.59 0.62 C-34.75 -11.42 -13.53 -9.88 0 0 Z " fill="#EB2123" transform="translate(313.1875,602.75)"/>
<path d="M0 0 C0.86 -0.01 1.73 -0.01 2.62 -0.02 C4.02 -0.01 4.02 -0.01 5.46 -0.01 C6.42 -0.01 7.38 -0.01 8.37 -0.01 C10.41 -0.01 12.45 -0.01 14.49 -0 C17.6 0.01 20.72 -0 23.83 -0.01 C25.81 -0.01 27.79 -0.01 29.77 -0.01 C30.7 -0.01 31.63 -0.01 32.59 -0.02 C40.88 0.04 40.88 0.04 44.81 2.26 C48.95 6.75 51.54 10.65 51.3 16.95 C50.23 22.02 47.84 26.02 43.81 29.26 C40.24 29.91 37.21 29.84 33.61 29.51 C30.86 29.02 30.86 29.02 28.81 30.26 C24.26 30.47 19.71 30.44 15.16 30.44 C12.89 30.45 10.62 30.46 8.35 30.48 C6.91 30.49 5.48 30.49 4.04 30.49 C2.72 30.49 1.41 30.5 0.06 30.5 C-3.19 30.26 -3.19 30.26 -6.19 28.26 C-6.56 25.68 -6.56 25.68 -6.55 22.45 C-6.55 21.29 -6.55 20.13 -6.55 18.94 C-6.53 17.72 -6.52 16.51 -6.5 15.26 C-6.5 14.04 -6.51 12.83 -6.51 11.58 C-6.44 0.01 -6.44 0.01 0 0 Z " fill="#EB2123" transform="translate(432.186767578125,594.7412109375)"/>
<path d="M0 0 C0.66 0 1.32 0 2 0 C2.31 0.8 2.62 1.59 2.95 2.41 C4.12 5.41 5.3 8.41 6.48 11.41 C6.99 12.7 7.49 13.99 8 15.28 C8.49 16.54 8.98 17.79 9.47 19.04 C10.2 20.88 10.92 22.72 11.63 24.56 C12.5 26.73 13.38 28.89 14.29 31.04 C14.85 32.37 14.85 32.37 15.42 33.73 C15.75 34.49 16.08 35.25 16.42 36.03 C17 38 17 38 16 41 C6.76 41 -2.48 41 -12 41 C-12.66 39.68 -13.32 38.36 -14 37 C-12.81 34.71 -12.81 34.71 -11 32 C-9.96 29.55 -8.99 27.12 -8.06 24.62 C-7.8 23.93 -7.55 23.24 -7.28 22.53 C-5.03 16.39 -3.33 10.16 -1.76 3.82 C-1 1 -1 1 0 0 Z " fill="#EB2123" transform="translate(792,613)"/>
<path d="M0 0 C0 23.1 0 46.2 0 70 C-0.99 69.67 -1.98 69.34 -3 69 C-3 46.56 -3 24.12 -3 1 C-1 0 -1 0 0 0 Z " fill="#F4ABA7" transform="translate(653,566)"/>
<path d="M0 0 C0 10.56 0 21.12 0 32 C-0.99 31.34 -1.98 30.68 -3 30 C-3.34 27.11 -3.34 27.11 -3.29 23.46 C-3.28 22.16 -3.27 20.86 -3.26 19.52 C-3.24 18.14 -3.21 16.76 -3.19 15.38 C-3.17 13.99 -3.16 12.6 -3.15 11.21 C-3.11 7.81 -3.06 4.4 -3 1 C-1 0 -1 0 0 0 Z " fill="#F4ABA7" transform="translate(66,563)"/>
<path d="M0 0 C3.96 0 7.92 0 12 0 C12.33 0.99 12.66 1.98 13 3 C8.38 3 3.76 3 -1 3 C-0.67 2.01 -0.34 1.02 0 0 Z " fill="#F4ADA9" transform="translate(463,623)"/>
</svg>
